<svg xmlns="http://www.w3.org/2000/svg" width="220.641" height="48.418" viewBox="0 0 220.641 48.418">
  <g id="Grupo_9910" data-name="Grupo 9910" transform="translate(-716.876 -126.548)">
    <path id="Trazado_405" data-name="Trazado 405" d="M16.083-2.592V-6.633H6.967V-24.155H2.376V-2.592Zm16.358,0V-12.679c0-4.494-3.265-5.916-6.821-5.916A10.243,10.243,0,0,0,18.8-16.138l1.552,2.748a6.57,6.57,0,0,1,4.558-1.843c2.069,0,3.427,1.035,3.427,2.619v2.166a6.311,6.311,0,0,0-4.946-1.907c-2.489,0-5.431,1.325-5.431,4.979A5.2,5.2,0,0,0,23.389-2.2a6.461,6.461,0,0,0,4.946-2v1.616Zm-4.106-3.75a4.107,4.107,0,0,1-3.3,1.358c-1.616,0-2.942-.841-2.942-2.3,0-1.487,1.325-2.36,2.942-2.36a4.107,4.107,0,0,1,3.3,1.358ZM40.62-2.592V-4.564A6.125,6.125,0,0,0,45.437-2.2c3.944,0,6.918-2.974,6.918-8.179,0-5.108-2.942-8.211-6.918-8.211A6.014,6.014,0,0,0,40.62-16.2v-7.953H36.515V-2.592Zm0-10.539a4.53,4.53,0,0,1,3.524-1.81c2.392,0,3.976,1.843,3.976,4.558s-1.584,4.526-3.976,4.526A4.57,4.57,0,0,1,40.62-7.6ZM54.812-4.855a2.65,2.65,0,0,0,2.619,2.619A2.65,2.65,0,0,0,60.05-4.855a2.65,2.65,0,0,0-2.619-2.619A2.65,2.65,0,0,0,54.812-4.855Zm54.861,2.263v-7.726h5.5c4.655,0,7.242-3.136,7.242-6.886,0-3.782-2.554-6.951-7.242-6.951H105.083V-2.592Zm8.05-14.645a2.939,2.939,0,0,1-3.168,2.974h-4.882v-5.948h4.882A2.957,2.957,0,0,1,117.723-17.237ZM129.265-2.592V-12.9a5.2,5.2,0,0,1,3.847-1.746,5.453,5.453,0,0,1,1.132.1v-4.009a6.68,6.68,0,0,0-4.979,2.489v-2.134h-4.106V-2.592Zm6.53-7.823c0,5.011,3.588,8.211,8.341,8.211a9.623,9.623,0,0,0,6.433-2.166l-1.81-2.651a6.385,6.385,0,0,1-4.17,1.552,4.207,4.207,0,0,1-4.494-3.621H151.7V-10c0-5.108-3.168-8.6-7.823-8.6A7.947,7.947,0,0,0,135.795-10.416Zm8.082-4.914a3.617,3.617,0,0,1,3.847,3.459H140.03A3.752,3.752,0,0,1,143.877-15.33Zm9.44,10.7A10.511,10.511,0,0,0,160.3-2.2c4.332,0,6.757-2.134,6.757-5.011,0-3.879-3.588-4.591-6.272-5.108-1.746-.356-2.974-.711-2.974-1.681,0-.905.97-1.455,2.457-1.455a6.587,6.587,0,0,1,4.623,1.81l1.616-2.813a9.811,9.811,0,0,0-6.272-2.134c-4.106,0-6.4,2.3-6.4,4.914,0,3.718,3.459,4.364,6.142,4.882,1.778.356,3.136.744,3.136,1.843,0,.97-.841,1.584-2.619,1.584a8.937,8.937,0,0,1-5.4-2.134ZM175.332-2.2a5.069,5.069,0,0,0,3.427-1l-.873-3.1a2.243,2.243,0,0,1-1.422.453c-.905,0-1.422-.744-1.422-1.713v-7.048h3.168v-3.588h-3.168v-4.267H170.9v4.267h-2.586v3.588H170.9v8.147C170.9-3.691,172.455-2.2,175.332-2.2Zm7.726-18.3a2.456,2.456,0,0,0,2.457-2.457,2.456,2.456,0,0,0-2.457-2.457,2.477,2.477,0,0,0-2.457,2.457A2.477,2.477,0,0,0,183.059-20.5Zm2.069,17.91V-18.207h-4.106V-2.592Zm3.75,4.009A9.41,9.41,0,0,0,195.6,3.744c3.847,0,8.438-1.455,8.438-7.4V-18.207H199.9v2a6.013,6.013,0,0,0-4.817-2.392c-3.944,0-6.886,2.845-6.886,7.953,0,5.2,2.974,7.953,6.886,7.953A6.08,6.08,0,0,0,199.9-5.146v1.584c0,3.071-2.328,3.944-4.3,3.944a6.206,6.206,0,0,1-4.882-1.94ZM199.9-8.12a4.547,4.547,0,0,1-3.524,1.778c-2.328,0-3.944-1.616-3.944-4.3s1.616-4.3,3.944-4.3a4.452,4.452,0,0,1,3.524,1.778Zm7.209-2.3c0,5.011,3.588,8.211,8.341,8.211a9.623,9.623,0,0,0,6.433-2.166l-1.81-2.651a6.385,6.385,0,0,1-4.17,1.552,4.207,4.207,0,0,1-4.494-3.621h11.606V-10c0-5.108-3.168-8.6-7.823-8.6A7.947,7.947,0,0,0,207.111-10.416Zm8.082-4.914a3.617,3.617,0,0,1,3.847,3.459h-7.694A3.752,3.752,0,0,1,215.193-15.33Z" transform="translate(714.5 155.542)" fill="#2552a8"/>
    <g id="Logo" transform="matrix(0.53, 0.848, -0.848, 0.53, 806.664, 120)">
      <g id="Grupo_125" data-name="Grupo 125" transform="translate(0 0)">
        <rect id="Rectángulo_84" data-name="Rectángulo 84" width="6.425" height="18.782" rx="3" transform="translate(0 12.357)" fill="#2552a8" opacity="0.5"/>
        <rect id="Rectángulo_85" data-name="Rectángulo 85" width="5.931" height="33.61" rx="2.966" transform="translate(8.897 0)" fill="#2552a8"/>
        <rect id="Rectángulo_86" data-name="Rectángulo 86" width="6.425" height="31.138" rx="3" transform="translate(17.299 7.414)" fill="#2552a8" opacity="0.5"/>
      </g>
    </g>
    <rect id="Rectángulo_6" data-name="Rectángulo 6" width="70.943" height="3.592" rx="1" transform="translate(861.356 171.374)" fill="#33dca7"/>
  </g>
</svg>
