<svg xmlns="http://www.w3.org/2000/svg" width="125.019" height="27.435" viewBox="0 0 125.019 27.435">
  <g id="Grupo_9941" data-name="Grupo 9941" transform="translate(-36.981 -24.138)">
    <path id="Trazado_406" data-name="Trazado 406" d="M10.143-12.484v-2.29H4.977V-24.7h-2.6v12.218Zm9.269,0V-18.2c0-2.546-1.85-3.352-3.865-3.352a5.8,5.8,0,0,0-3.865,1.392l.879,1.557a3.723,3.723,0,0,1,2.583-1.044c1.172,0,1.942.586,1.942,1.484v1.227a3.576,3.576,0,0,0-2.8-1.081,2.8,2.8,0,0,0-3.077,2.821,2.947,2.947,0,0,0,3.077,2.931,3.661,3.661,0,0,0,2.8-1.136v.916Zm-2.326-2.125a2.327,2.327,0,0,1-1.868.769c-.916,0-1.667-.476-1.667-1.3,0-.843.751-1.337,1.667-1.337a2.327,2.327,0,0,1,1.868.769Zm6.961,2.125V-13.6a3.47,3.47,0,0,0,2.729,1.337c2.235,0,3.92-1.685,3.92-4.634,0-2.894-1.667-4.653-3.92-4.653A3.407,3.407,0,0,0,24.046-20.2V-24.7H21.72v12.218Zm0-5.972a2.567,2.567,0,0,1,2-1.026A2.3,2.3,0,0,1,28.3-16.9a2.287,2.287,0,0,1-2.253,2.564,2.589,2.589,0,0,1-2-.989Zm8.042,4.689a1.5,1.5,0,0,0,1.484,1.484,1.5,1.5,0,0,0,1.484-1.484,1.5,1.5,0,0,0-1.484-1.484A1.5,1.5,0,0,0,32.087-13.766Zm31.085,1.282v-4.378h3.114a3.8,3.8,0,0,0,4.1-3.9,3.813,3.813,0,0,0-4.1-3.938H60.572v12.218Zm4.561-8.3a1.665,1.665,0,0,1-1.8,1.685H63.173v-3.37h2.766A1.676,1.676,0,0,1,67.734-20.782Zm6.539,8.3v-5.843a2.949,2.949,0,0,1,2.18-.989,3.089,3.089,0,0,1,.641.055v-2.271a3.785,3.785,0,0,0-2.821,1.41v-1.209H71.947v8.847Zm3.7-4.433A4.481,4.481,0,0,0,82.7-12.264a5.453,5.453,0,0,0,3.645-1.227l-1.026-1.5a3.618,3.618,0,0,1-2.363.879,2.384,2.384,0,0,1-2.546-2.052h6.576v-.513c0-2.894-1.8-4.873-4.433-4.873A4.5,4.5,0,0,0,77.974-16.917ZM82.553-19.7a2.049,2.049,0,0,1,2.18,1.96h-4.36A2.126,2.126,0,0,1,82.553-19.7ZM87.9-13.638a5.956,5.956,0,0,0,3.957,1.374c2.455,0,3.828-1.209,3.828-2.839,0-2.2-2.033-2.6-3.554-2.894-.989-.2-1.685-.4-1.685-.953,0-.513.55-.824,1.392-.824a3.732,3.732,0,0,1,2.619,1.026l.916-1.594a5.559,5.559,0,0,0-3.554-1.209c-2.326,0-3.627,1.3-3.627,2.784,0,2.107,1.96,2.473,3.48,2.766,1.007.2,1.777.421,1.777,1.044,0,.55-.476.9-1.484.9a5.064,5.064,0,0,1-3.059-1.209Zm12.474,1.374a2.872,2.872,0,0,0,1.942-.568l-.495-1.759a1.271,1.271,0,0,1-.806.256c-.513,0-.806-.421-.806-.971V-19.3h1.8v-2.033h-1.8v-2.418H97.867v2.418H96.4V-19.3h1.465v4.616A2.211,2.211,0,0,0,100.376-12.264Zm4.378-10.368a1.392,1.392,0,0,0,1.392-1.392,1.392,1.392,0,0,0-1.392-1.392,1.4,1.4,0,0,0-1.392,1.392A1.4,1.4,0,0,0,104.754-22.632Zm1.172,10.148v-8.847H103.6v8.847Zm2.125,2.271a5.332,5.332,0,0,0,3.81,1.319c2.18,0,4.781-.824,4.781-4.195v-8.243H114.3V-20.2a3.407,3.407,0,0,0-2.729-1.356c-2.235,0-3.9,1.612-3.9,4.506,0,2.949,1.685,4.506,3.9,4.506a3.445,3.445,0,0,0,2.729-1.392v.9a2.163,2.163,0,0,1-2.436,2.235,3.516,3.516,0,0,1-2.766-1.1Zm6.246-5.4a2.576,2.576,0,0,1-2,1.007,2.194,2.194,0,0,1-2.235-2.436,2.194,2.194,0,0,1,2.235-2.436,2.522,2.522,0,0,1,2,1.007Zm4.085-1.3a4.481,4.481,0,0,0,4.726,4.653,5.453,5.453,0,0,0,3.645-1.227l-1.026-1.5a3.618,3.618,0,0,1-2.363.879,2.384,2.384,0,0,1-2.546-2.052H127.4v-.513c0-2.894-1.8-4.873-4.433-4.873A4.5,4.5,0,0,0,118.383-16.917Zm4.579-2.784a2.049,2.049,0,0,1,2.18,1.96h-4.36A2.126,2.126,0,0,1,122.962-19.7Z" transform="translate(34.605 51.581)" fill="#fff"/>
    <g id="Logo" transform="matrix(0.53, 0.848, -0.848, 0.53, 87.856, 20.427)">
      <g id="Grupo_125" data-name="Grupo 125" transform="translate(0 0)">
        <rect id="Rectángulo_84" data-name="Rectángulo 84" width="3.641" height="10.642" rx="1.82" transform="translate(0 7.001)" fill="#fff" opacity="0.5"/>
        <rect id="Rectángulo_85" data-name="Rectángulo 85" width="3.361" height="19.044" rx="1.68" transform="translate(5.041 0)" fill="#fff"/>
        <rect id="Rectángulo_86" data-name="Rectángulo 86" width="3.641" height="17.644" rx="1.82" transform="translate(9.802 4.201)" fill="#fff" opacity="0.5"/>
      </g>
    </g>
    <rect id="Rectángulo_16845" data-name="Rectángulo 16845" width="40.197" height="2.035" rx="1" transform="translate(118.846 49.537)" fill="#33dca7"/>
  </g>
</svg>
