<svg id="Componente_11_1" data-name="Componente 11 – 1" xmlns="http://www.w3.org/2000/svg" width="30.259" height="30.259" viewBox="0 0 30.259 30.259">
  <g id="Grupo_9862" data-name="Grupo 9862" transform="translate(-921 -14)">
    <g id="Trazado_404" data-name="Trazado 404" transform="translate(921 14)" fill="none">
      <path d="M15.129,0A15.129,15.129,0,1,1,0,15.129,15.129,15.129,0,0,1,15.129,0Z" stroke="none"/>
      <path d="M 15.12939453125 1.499994277954102 C 11.48885536193848 1.499994277954102 8.066213607788086 2.917703628540039 5.491954803466797 5.491954803466797 C 2.917703628540039 8.066213607788086 1.499994277954102 11.48885536193848 1.499994277954102 15.12939453125 C 1.499994277954102 18.76993560791016 2.917703628540039 22.19257354736328 5.491954803466797 24.76682472229004 C 8.066213607788086 27.34108352661133 11.48885536193848 28.75878524780273 15.12939453125 28.75878524780273 C 18.76993560791016 28.75878524780273 22.19257354736328 27.34108352661133 24.76682472229004 24.76682472229004 C 27.34108352661133 22.19257354736328 28.75878524780273 18.76993560791016 28.75878524780273 15.12939453125 C 28.75878524780273 11.48885536193848 27.34108352661133 8.066213607788086 24.76682472229004 5.491954803466797 C 22.19257354736328 2.917703628540039 18.76993560791016 1.499994277954102 15.12939453125 1.499994277954102 M 15.12939453125 -5.7220458984375e-06 C 23.4851245880127 -5.7220458984375e-06 30.25878524780273 6.773664474487305 30.25878524780273 15.12939453125 C 30.25878524780273 23.4851245880127 23.4851245880127 30.25878524780273 15.12939453125 30.25878524780273 C 6.773664474487305 30.25878524780273 -5.7220458984375e-06 23.4851245880127 -5.7220458984375e-06 15.12939453125 C -5.7220458984375e-06 6.773664474487305 6.773664474487305 -5.7220458984375e-06 15.12939453125 -5.7220458984375e-06 Z" stroke="none" fill="#b00053"/>
    </g>
  </g>
  <path id="Trazado_1931" data-name="Trazado 1931" d="M5753.129,2844.064v13.952" transform="translate(-5737.629 -2835.564)" fill="#b00053" stroke="#b00053" stroke-linecap="round" stroke-width="1.5"/>
  <path id="Trazado_1932" data-name="Trazado 1932" d="M5753.129,2844.064v13.952" transform="translate(2866.516 -5737.629) rotate(90)" fill="#b00053" stroke="#b00053" stroke-linecap="round" stroke-width="1.5"/>
</svg>
