<svg xmlns="http://www.w3.org/2000/svg" width="21.688" height="22.31" viewBox="0 0 21.688 22.31">
  <g id="settings-1" transform="translate(0.25 0.25)">
    <g id="Grupo_34" data-name="Grupo 34">
      <path id="Trazado_67" data-name="Trazado 67" d="M175.873,10.63V.613a.613.613,0,1,0-1.226,0V10.63a3.113,3.113,0,0,0,0,6.1v4.459a.613.613,0,1,0,1.226,0V16.733a3.113,3.113,0,0,0,0-6.1Zm-.613,4.936a1.884,1.884,0,1,1,1.884-1.884A1.886,1.886,0,0,1,175.26,15.566Z" transform="translate(-164.644)" fill="#fff" stroke="#fff" stroke-width="0.5"/>
      <path id="Trazado_68" data-name="Trazado 68" d="M10.573,5.49V.613a.613.613,0,1,0-1.226,0V5.49a3.113,3.113,0,0,0,0,6.1v9.6a.613.613,0,1,0,1.226,0v-9.6a3.11,3.11,0,0,0,0-6.1ZM9.96,10.426a1.884,1.884,0,1,1,1.884-1.884A1.886,1.886,0,0,1,9.96,10.426Z" transform="translate(-6.85)" fill="#fff" stroke="#fff" stroke-width="0.5"/>
      <path id="Trazado_69" data-name="Trazado 69" d="M340.173,5.49V.613a.613.613,0,1,0-1.226,0V5.49a3.113,3.113,0,0,0,0,6.1v9.6a.613.613,0,1,0,1.226,0V11.588a3.11,3.11,0,0,0,0-6.1Zm-.613,4.936a1.884,1.884,0,1,1,1.884-1.884A1.886,1.886,0,0,1,339.56,10.426Z" transform="translate(-321.483)" fill="#fff" stroke="#fff" stroke-width="0.5"/>
    </g>
  </g>
</svg>
