<svg xmlns="http://www.w3.org/2000/svg" width="19.658" height="23.02" viewBox="0 0 19.658 23.02">
  <g id="avatar" transform="translate(0.251 0.25)">
    <g id="Grupo_14" data-name="Grupo 14">
      <path id="Trazado_2" data-name="Trazado 2" d="M141.867,12.134h.149a4.3,4.3,0,0,0,3.288-1.422c1.8-2.024,1.5-5.494,1.464-5.825a4.758,4.758,0,0,0-2.262-4.23A5.185,5.185,0,0,0,142,0h-.079a5.193,5.193,0,0,0-2.509.639,4.761,4.761,0,0,0-2.29,4.248c-.033.331-.331,3.8,1.464,5.825A4.286,4.286,0,0,0,141.867,12.134ZM138.365,5c0-.014,0-.028,0-.037.154-3.344,2.528-3.7,3.544-3.7h.056c1.259.028,3.4.541,3.544,3.7a.091.091,0,0,0,0,.037c0,.033.331,3.2-1.152,4.873a3.057,3.057,0,0,1-2.4,1h-.047a3.047,3.047,0,0,1-2.4-1C138.043,8.217,138.36,5.032,138.365,5Z" transform="translate(-132.371)" fill="#fff" stroke="#fff" stroke-width="0.5"/>
      <path id="Trazado_3" data-name="Trazado 3" d="M55.227,265.043v-.014c0-.037,0-.075,0-.117-.028-.923-.089-3.083-2.113-3.773l-.047-.014a13.457,13.457,0,0,1-3.871-1.763.629.629,0,1,0-.723,1.031,14.523,14.523,0,0,0,4.258,1.945c1.087.387,1.208,1.548,1.24,2.612a.937.937,0,0,0,0,.117,8.464,8.464,0,0,1-.1,1.441,17.163,17.163,0,0,1-8.222,1.912,17.261,17.261,0,0,1-8.226-1.917,8.014,8.014,0,0,1-.1-1.441c0-.037,0-.075,0-.117.033-1.063.154-2.224,1.24-2.612a14.66,14.66,0,0,0,4.258-1.945.629.629,0,0,0-.723-1.031,13.308,13.308,0,0,1-3.871,1.763l-.047.014c-2.024.695-2.085,2.854-2.113,3.773a.936.936,0,0,1,0,.117v.014a7.151,7.151,0,0,0,.238,2.113.6.6,0,0,0,.243.294,17.639,17.639,0,0,0,9.1,2.229,17.693,17.693,0,0,0,9.1-2.229.624.624,0,0,0,.242-.294A7.5,7.5,0,0,0,55.227,265.043Z" transform="translate(-36.073 -247.154)" fill="#fff" stroke="#fff" stroke-width="0.5"/>
    </g>
  </g>
</svg>
