<svg id="Componente_12_1" data-name="Componente 12 – 1" xmlns="http://www.w3.org/2000/svg" width="30.259" height="30.259" viewBox="0 0 30.259 30.259">
  <g id="Grupo_9861" data-name="Grupo 9861" transform="translate(-921 -14)">
    <g id="Trazado_404" data-name="Trazado 404" transform="translate(921 14)" fill="none">
      <path d="M15.129,0A15.129,15.129,0,1,1,0,15.129,15.129,15.129,0,0,1,15.129,0Z" stroke="none"/>
      <path d="M 15.12939453125 1.499994277954102 C 11.48885536193848 1.499994277954102 8.066213607788086 2.917703628540039 5.491954803466797 5.491954803466797 C 2.917703628540039 8.066213607788086 1.499994277954102 11.48885536193848 1.499994277954102 15.12939453125 C 1.499994277954102 18.76993560791016 2.917703628540039 22.19257354736328 5.491954803466797 24.76682472229004 C 8.066213607788086 27.34108352661133 11.48885536193848 28.75878524780273 15.12939453125 28.75878524780273 C 18.76993560791016 28.75878524780273 22.19257354736328 27.34108352661133 24.76682472229004 24.76682472229004 C 27.34108352661133 22.19257354736328 28.75878524780273 18.76993560791016 28.75878524780273 15.12939453125 C 28.75878524780273 11.48885536193848 27.34108352661133 8.066213607788086 24.76682472229004 5.491954803466797 C 22.19257354736328 2.917703628540039 18.76993560791016 1.499994277954102 15.12939453125 1.499994277954102 M 15.12939453125 -5.7220458984375e-06 C 23.4851245880127 -5.7220458984375e-06 30.25878524780273 6.773664474487305 30.25878524780273 15.12939453125 C 30.25878524780273 23.4851245880127 23.4851245880127 30.25878524780273 15.12939453125 30.25878524780273 C 6.773664474487305 30.25878524780273 -5.7220458984375e-06 23.4851245880127 -5.7220458984375e-06 15.12939453125 C -5.7220458984375e-06 6.773664474487305 6.773664474487305 -5.7220458984375e-06 15.12939453125 -5.7220458984375e-06 Z" stroke="none" fill="#2552a8"/>
    </g>
  </g>
  <g id="ojo_naranaja" data-name="ojo naranaja" transform="translate(6.952 10.375)">
    <path id="Trazado_23" data-name="Trazado 23" d="M98.492,299.828a9.644,9.644,0,0,1,7.921,4.387.632.632,0,0,1,0,.767,9.63,9.63,0,0,1-16.009.157.816.816,0,0,1,.007-1.1,9.684,9.684,0,0,1,6.458-4.077c.251-.044.506-.064.76-.086S98.134,299.849,98.492,299.828Zm-.2,1.274c-.338.031-.738.046-1.132.106a8.313,8.313,0,0,0-5.469,3.224.216.216,0,0,0-.006.319,8.478,8.478,0,0,0,1.423,1.459,8.357,8.357,0,0,0,11.9-1.449.224.224,0,0,0,0-.333,8.44,8.44,0,0,0-6.721-3.328Z" transform="translate(-90.191 -299.828)" fill="#2552a8"/>
    <path id="Trazado_24" data-name="Trazado 24" d="M236.1,356.989a2.5,2.5,0,1,1-1.773.729A2.516,2.516,0,0,1,236.1,356.989Zm.009,1.258a1.257,1.257,0,1,0,1.255,1.259,1.291,1.291,0,0,0-1.251-1.259Z" transform="translate(-227.949 -354.738)" fill="#2552a8"/>
  </g>
</svg>
